<svg id="visual" viewBox="0 0 900 600" width="900" height="600" xmlns="http://www.w3.org/2000/svg" xmlns:xlink="http://www.w3.org/1999/xlink" version="1.1"><rect width="900" height="600" fill="#001829"></rect><g><g transform="translate(649 351)"><path d="M0 -147L127.3 -73.5L127.3 73.5L0 147L-127.3 73.5L-127.3 -73.5Z" fill="none" stroke="#297EA6" stroke-width="2"></path></g><g transform="translate(302 214)"><path d="M0 -118L102.2 -59L102.2 59L0 118L-102.2 59L-102.2 -59Z" fill="none" stroke="#297EA6" stroke-width="2"></path></g><g transform="translate(143 557)"><path d="M0 -143L123.8 -71.5L123.8 71.5L0 143L-123.8 71.5L-123.8 -71.5Z" stroke="#297EA6" fill="none" stroke-width="2"></path></g><g transform="translate(574 35)"><path d="M0 -107L92.7 -53.5L92.7 53.5L0 107L-92.7 53.5L-92.7 -53.5Z" stroke="#297EA6" fill="none" stroke-width="2"></path></g><g transform="translate(42 51)"><path d="M0 -119L103.1 -59.5L103.1 59.5L0 119L-103.1 59.5L-103.1 -59.5Z" stroke="#297EA6" fill="none" stroke-width="2"></path></g><g transform="translate(880 580)"><path d="M0 -111L96.1 -55.5L96.1 55.5L0 111L-96.1 55.5L-96.1 -55.5Z" stroke="#297EA6" fill="none" stroke-width="2"></path></g><g transform="translate(874 119)"><path d="M0 -134L116 -67L116 67L0 134L-116 67L-116 -67Z" stroke="#297EA6" fill="none" stroke-width="2"></path></g><g transform="translate(445 570)"><path d="M0 -90L77.9 -45L77.9 45L0 90L-77.9 45L-77.9 -45Z" stroke="#297EA6" fill="none" stroke-width="2"></path></g></g></svg>