<svg id="visual" viewBox="0 0 900 600" width="900" height="600" xmlns="http://www.w3.org/2000/svg" xmlns:xlink="http://www.w3.org/1999/xlink" version="1.1"><rect x="0" y="0" width="900" height="600" fill="#001220"></rect><defs><linearGradient id="grad1_0" x1="33.3%" y1="0%" x2="100%" y2="100%"><stop offset="20%" stop-color="#001220" stop-opacity="1"></stop><stop offset="80%" stop-color="#001220" stop-opacity="1"></stop></linearGradient></defs><defs><linearGradient id="grad2_0" x1="0%" y1="0%" x2="66.7%" y2="100%"><stop offset="20%" stop-color="#001220" stop-opacity="1"></stop><stop offset="80%" stop-color="#001220" stop-opacity="1"></stop></linearGradient></defs><g transform="translate(900, 0)"><path d="M0 135.2C-18.6 134.5 -37.1 133.8 -51.7 124.9C-66.4 116.1 -77.1 99.1 -84.1 84.1C-91.2 69.2 -94.6 56.2 -102.6 42.5C-110.5 28.8 -122.8 14.4 -135.2 0L0 0Z" fill="#6600FF"></path></g><g transform="translate(0, 600)"><path d="M0 -135.2C17.4 -133.2 34.9 -131.2 51.7 -124.9C68.6 -118.7 84.9 -108.2 94 -94C103.2 -79.9 105.2 -62.2 110.9 -45.9C116.5 -29.6 125.9 -14.8 135.2 0L0 0Z" fill="#6600FF"></path></g></svg>