<svg id="visual" viewBox="0 0 900 600" width="900" height="600" xmlns="http://www.w3.org/2000/svg" xmlns:xlink="http://www.w3.org/1999/xlink" version="1.1"><rect x="0" y="0" width="900" height="600" fill="#001220"></rect><defs><linearGradient id="grad1_0" x1="33.3%" y1="0%" x2="100%" y2="100%"><stop offset="20%" stop-color="#001220" stop-opacity="1"></stop><stop offset="80%" stop-color="#001220" stop-opacity="1"></stop></linearGradient></defs><defs><linearGradient id="grad2_0" x1="0%" y1="0%" x2="66.7%" y2="100%"><stop offset="20%" stop-color="#001220" stop-opacity="1"></stop><stop offset="80%" stop-color="#001220" stop-opacity="1"></stop></linearGradient></defs><g transform="translate(900, 0)"><path d="M0 307C-44.1 308.9 -88.2 310.7 -121.3 292.9C-154.4 275 -176.4 237.5 -209.3 209.3C-242.2 181.1 -285.8 162.3 -311.3 129C-336.9 95.6 -344.2 47.8 -351.5 0L0 0Z" fill="#4FACF7"></path></g><g transform="translate(0, 600)"><path d="M0 -349C41.2 -334.5 82.4 -320 126.3 -304.9C170.2 -289.7 216.7 -273.9 241.8 -241.8C267 -209.7 270.8 -161.3 285.5 -118.2C300.2 -75.2 325.9 -37.6 351.5 0L0 0Z" fill="#4FACF7"></path></g></svg>