<svg id="visual" viewBox="0 0 900 600" width="900" height="600" xmlns="http://www.w3.org/2000/svg" xmlns:xlink="http://www.w3.org/1999/xlink" version="1.1"><rect x="0" y="0" width="900" height="600" fill="#032742"></rect><defs><linearGradient id="grad1_0" x1="33.3%" y1="100%" x2="100%" y2="0%"><stop offset="20%" stop-color="#4facf7" stop-opacity="1"></stop><stop offset="80%" stop-color="#4facf7" stop-opacity="1"></stop></linearGradient></defs><defs><linearGradient id="grad1_1" x1="33.3%" y1="100%" x2="100%" y2="0%"><stop offset="20%" stop-color="#4facf7" stop-opacity="1"></stop><stop offset="80%" stop-color="#032742" stop-opacity="1"></stop></linearGradient></defs><defs><linearGradient id="grad2_0" x1="0%" y1="100%" x2="66.7%" y2="0%"><stop offset="20%" stop-color="#4facf7" stop-opacity="1"></stop><stop offset="80%" stop-color="#4facf7" stop-opacity="1"></stop></linearGradient></defs><defs><linearGradient id="grad2_1" x1="0%" y1="100%" x2="66.7%" y2="0%"><stop offset="20%" stop-color="#032742" stop-opacity="1"></stop><stop offset="80%" stop-color="#4facf7" stop-opacity="1"></stop></linearGradient></defs><g transform="translate(900, 600)"><path d="M-459.7 0C-427.9 -51.2 -396.1 -102.4 -374.2 -155C-352.2 -207.5 -340.1 -261.4 -309.7 -309.7C-279.3 -358 -230.6 -400.7 -175.9 -424.7C-121.3 -448.8 -60.6 -454.2 0 -459.7L0 0Z" fill="#286597"></path><path d="M-229.9 0C-214 -25.6 -198.1 -51.2 -187.1 -77.5C-176.1 -103.8 -170.1 -130.7 -154.9 -154.9C-139.7 -179 -115.3 -200.3 -88 -212.4C-60.6 -224.4 -30.3 -227.1 0 -229.9L0 0Z" fill="#4facf7"></path></g><g transform="translate(0, 0)"><path d="M459.7 0C458.2 65.3 456.6 130.7 424.7 175.9C392.8 221.2 330.6 246.3 286.4 286.4C242.1 326.5 215.8 381.6 171.1 413C126.3 444.4 63.2 452 0 459.7L0 0Z" fill="#286597"></path><path d="M229.9 0C229.1 32.7 228.3 65.3 212.4 88C196.4 110.6 165.3 123.1 143.2 143.2C121.1 163.2 107.9 190.8 85.5 206.5C63.2 222.2 31.6 226 0 229.9L0 0Z" fill="#4facf7"></path></g></svg>